<svg xmlns="http://www.w3.org/2000/svg" width="29.938" height="15" viewBox="0 0 29.938 15">
  <defs>
    <style>
      .cls-1 {
        fill: #f2545b;
        fill-rule: evenodd;
      }
    </style>
  </defs>
  <path id="icon-brakfast" class="cls-1" d="M885.478,1144.6l0.228,0.23,5.065,5.2,2.556-.97-1.726-8.57A14.435,14.435,0,0,0,885.478,1144.6Zm-2.23,7.61a1.139,1.139,0,0,0,1.146.79c1.549,0,4.024-1.91,5.192-2.94l-3.921-4.03C884.77,1146.9,882.2,1149.7,883.248,1152.21Zm14.781-14.2-0.08-.01a11.851,11.851,0,0,0-5.512,1.51l2,10.09,0.018,0.02h7.224l-0.055-.02,1.969-10.11a11.96,11.96,0,0,0-5.506-1.49Zm6.4,2.5-1.726,8.57,2.514,0.95,5.04-5.17,0.254-.26A14.3,14.3,0,0,0,904.432,1140.51Zm5.9,5.52-3.922,4.03c1.168,1.03,3.645,2.94,5.192,2.94a1.137,1.137,0,0,0,1.145-.79C913.79,1149.69,911.223,1146.9,910.328,1146.03Z" transform="translate(-883.031 -1138)"/>
</svg>
